<svg width="512" height="512" viewBox="0 0 512 512" fill="none" xmlns="http://www.w3.org/2000/svg">
<rect width="512" height="512" fill="black"/>
<path d="M62 67H442V447H62V67Z" stroke="white" stroke-width="20"/>
<path d="M217.694 209.062C213.897 213.609 208.53 217.148 201.592 219.68C194.655 222.164 186.967 223.406 178.53 223.406C169.67 223.406 161.889 221.484 155.186 217.641C148.53 213.75 143.373 208.125 139.717 200.766C136.108 193.406 134.256 184.758 134.162 174.82V167.859C134.162 157.641 135.873 148.805 139.295 141.352C142.764 133.852 147.733 128.133 154.202 124.195C160.717 120.211 168.334 118.219 177.053 118.219C189.194 118.219 198.686 121.125 205.53 126.938C212.373 132.703 216.428 141.117 217.694 152.18H197.162C196.225 146.32 194.139 142.031 190.905 139.312C187.717 136.594 183.311 135.234 177.686 135.234C170.514 135.234 165.053 137.93 161.303 143.32C157.553 148.711 155.655 156.727 155.608 167.367V173.906C155.608 184.641 157.647 192.75 161.725 198.234C165.803 203.719 171.78 206.461 179.655 206.461C187.577 206.461 193.225 204.773 196.6 201.398V183.75H177.405V168.211H217.694V209.062ZM271.68 222H250.586V119.625H271.68V222ZM367.291 180.164H326.791V222H305.697V119.625H372.353V136.711H326.791V163.148H367.291V180.164ZM177.039 369.906H140.055L133.023 391H110.594L148.703 288.625H168.25L206.57 391H184.141L177.039 369.906ZM145.75 352.82H171.344L158.477 314.5L145.75 352.82ZM237.227 354.93V391H216.133V288.625H256.07C263.758 288.625 270.508 290.031 276.32 292.844C282.18 295.656 286.68 299.664 289.82 304.867C292.961 310.023 294.531 315.906 294.531 322.516C294.531 332.547 291.086 340.469 284.195 346.281C277.352 352.047 267.859 354.93 255.719 354.93H237.227ZM237.227 337.844H256.07C261.648 337.844 265.891 336.531 268.797 333.906C271.75 331.281 273.227 327.531 273.227 322.656C273.227 317.641 271.75 313.586 268.797 310.492C265.844 307.398 261.766 305.805 256.562 305.711H237.227V337.844ZM330.18 354.93V391H309.086V288.625H349.023C356.711 288.625 363.461 290.031 369.273 292.844C375.133 295.656 379.633 299.664 382.773 304.867C385.914 310.023 387.484 315.906 387.484 322.516C387.484 332.547 384.039 340.469 377.148 346.281C370.305 352.047 360.812 354.93 348.672 354.93H330.18ZM330.18 337.844H349.023C354.602 337.844 358.844 336.531 361.75 333.906C364.703 331.281 366.18 327.531 366.18 322.656C366.18 317.641 364.703 313.586 361.75 310.492C358.797 307.398 354.719 305.805 349.516 305.711H330.18V337.844Z" fill="white"/>
</svg>
